<svg width="275.4" height="181.44634914960722" viewBox="0 0 350.00000000000006 230.5963042932554" class="css-1j8o68f"><defs id="SvgjsDefs1289"></defs><g id="SvgjsG1290" featurekey="symbolFeature-0" transform="matrix(1.09375,0,0,1.09375,105,-15.312435328960419)" fill="#111111"><title xmlns="http://www.w3.org/2000/svg">Miscellaneous 71 final</title><path xmlns="http://www.w3.org/2000/svg" d="M97,37.99994a24,24,0,1,0-24,24A24.02718,24.02718,0,0,0,97,37.99994Zm-44,0a20,20,0,1,1,20,20A20,20,0,0,1,53,37.99994Z"></path><path xmlns="http://www.w3.org/2000/svg" d="M27,19.99994a18,18,0,1,0,18,18A18.02039,18.02039,0,0,0,27,19.99994Zm0,32a14,14,0,1,1,14-14A14,14,0,0,1,27,51.99994Z"></path><path xmlns="http://www.w3.org/2000/svg" d="M27,28.99994a9,9,0,1,0,9,9A9.01019,9.01019,0,0,0,27,28.99994Zm0,14a5,5,0,1,1,5-5A5,5,0,0,1,27,42.99994Z"></path><path xmlns="http://www.w3.org/2000/svg" d="M86,37.99994a13,13,0,1,0-13,13A13.01474,13.01474,0,0,0,86,37.99994Zm-22,0a9,9,0,1,1,9,9A9,9,0,0,1,64,37.99994Z"></path><path xmlns="http://www.w3.org/2000/svg" d="M42.99994,58.99994a4,4,0,0,0-3.99994,4v24a3.99995,3.99995,0,0,0,6.058,3.42993l20-12a4,4,0,0,0,0-6.85992l-20-12A3.9972,3.9972,0,0,0,42.99994,58.99994Zm.00006,28v-24l20,12Z"></path><path xmlns="http://www.w3.org/2000/svg" d="M125.67572,37.36786a3.9997,3.9997,0,0,0-4.27167.58887L106,51.09711v-.09717a8.01087,8.01087,0,0,0-5.52692-7.60425,27.73863,27.73863,0,0,1-1.05725,3.87476A3.99145,3.99145,0,0,1,102,50.99994v49a4,4,0,0,1-4,4H8a4,4,0,0,1-4-4v-49a3.99068,3.99068,0,0,1,2.99744-3.85779,21.81578,21.81578,0,0,1-1.33624-3.79163A8.01294,8.01294,0,0,0,0,50.99994v49a8.00909,8.00909,0,0,0,8,8H98a8.009,8.009,0,0,0,8-8v-.09717l15.40405,13.14032A4,4,0,0,0,128,109.99994v-69A4,4,0,0,0,125.67572,37.36786ZM124,109.99994,106,94.64508V56.35474l18-15.3548Z"></path></g><g id="SvgjsG1291" featurekey="nameFeature-0" transform="matrix(2.470913901831544,0,0,2.470913901831544,-0.000004123782470898821,94.60488772377764)" fill="#111111"><path d="M22 14.48 l-0.04 0.08 l0 25.24 l-4.12 0 l0 -12.08 l-3.48 11.04 l-0.4 1.24 l-3.56 0 l-4 -12.56 l0 12.32 l-4.12 0 l0 -21.72 l-2.28 0 l0 -4.12 l6.44 0 l5.72 17.96 l5.68 -17.92 l0 -0.04 l4.12 0 l0 0.56 l0.04 0 z M38.846000000000004 13.920000000000002 l0 20.44 l-12.76 0 l0 -16.56 l-1.84 0 l0 -3.88 l14.6 0 z M34.966 30.48 l0 -12.68 l-5 0 l0 12.68 l5 0 z M26.206000000000003 39.92 l0 -4.2 l12.52 0 l0 4.2 l-12.52 0 z M56.852 14.68 l-0.04 0 l-4.96 24.6 l0.72 0.72 l-5.72 0 l0.68 -0.72 l-4.24 -21.28 l-2.2 0 l0 -4.08 l4.2 0 l0 0.04 l1.36 0 l3.04 15.24 l2.96 -14.6 l-0.68 -0.68 l5.56 0.04 z M61.418 39.28 l0.04 0 l0 -21.16 l-1.68 0 l0 -4.16 l5.84 0 l0 25.32 l0.72 0.72 l-5.6 0 z M80.504 39.28 l0.72 0.72 l-11.48 0 l0.68 -0.72 l0.04 0 l0 -21.24 l-1.88 0 l0 -4.12 l12.04 0 l0 4.16 l-5.96 0 l0 2.88 l5.24 0 l0.72 -0.68 l0 5.48 l-0.64 -0.6 l-5.32 0 l0 10.68 l5.84 0 l0 3.44 z M97.35 35.88 l0 4.12 l-12.88 0 l0.68 -0.72 l0 -21.16 l-1.68 0 l0 -4.12 l5.8 0 l0 21.88 l8.08 0 z M101.236 39.28 l0.04 0 l0 -21.16 l-1.68 0 l0 -4.16 l5.84 0 l0 25.32 l0.72 0.72 l-5.6 0 z M123.002 39.28 l0.72 0.72 l-15.32 0 l0.68 -0.72 l0 -10.04 l5.52 0 l0.72 -0.72 l0 5.48 l-0.52 -0.52 l-1.48 0 l0 2.28 l5.44 0 l0 -11.52 l-9.76 0 l0 -10.16 l14 0 l0 4.24 l-9.8 0 l0 1.68 l9.8 0 l0 19.28 z M124.768 13.920000000000002 l16.88 0 l0 5.32 l-4.2 0 l0 -1.12 l-2.08 0 l0 21.2 l0.72 0.72 l-5.6 0 l0.72 -0.72 l0 -21.2 l-2.28 0 l0 1.12 l-4.16 0 l0 -5.32 z"></path></g><g id="SvgjsG1292" featurekey="sloganFeature-0" transform="matrix(1.8469656248483937,0,0,1.8469656248483937,34.26121357392027,193.28760078500227)" fill="#111111"><path d="M5.1 17.8 l3 -9.6 l1.9 0 l3 9.6 l0.1 0 l3.1 -11.8 l1.5 0 l0 0.6 l-3.6 13.4 l-1.9 0 l-3.1 -9.8 l-0.1 0 l-3.1 9.8 l-1.9 0 l-3.6 -13.4 l0 -0.6 l1.5 0 l3.1 11.8 l0.1 0 z M28.5 6 l1.5 0 l0 14 l-1.5 0 l0 -6.5 l-6.9 0 l0 6.5 l-1.5 0 l0 -14 l1.5 0 l0 6.2 l6.9 0 l0 -6.2 z M35 16.4 l-1.2 3.6 l-1.5 0 l0 -0.6 l4.9 -13.4 l1.7 0 l4.9 13.4 l0 0.6 l-1.5 0 l-1.2 -3.6 l-6.1 0 z M40.6 15.1 l-2.5 -7.3 l-0.1 0 l-2.5 7.3 l5.1 0 z M50.2 7.300000000000001 l0 12.7 l-1.5 0 l0 -12.7 l-4.4 0 l0 -1.3 l10.3 0 l0 0.9 l-0.4 0.4 l-4 0 z M65.10000000000001 7.300000000000001 l0 12.7 l-1.5 0 l0 -12.7 l-4.4 0 l0 -1.3 l10.3 0 l0 0.9 l-0.4 0.4 l-4 0 z M71.3 16.9 l0 -7.8 c0 -1.9 1.4 -3.3 3.5 -3.3 l3.5 0 c2.1 0 3.5 1.4 3.5 3.3 l0 7.8 c0 1.9 -1.4 3.3 -3.5 3.3 l-3.5 0 c-2.1 0 -3.5 -1.4 -3.5 -3.3 z M80.3 16.9 l0 -7.8 c0 -1.1 -0.9 -2 -2 -2 l-3.5 0 c-1.1 0 -2 0.9 -2 2 l0 7.8 c0 1.1 0.9 2 2 2 l3.5 0 c1.1 0 2 -0.9 2 -2 z M93.1 17.8 l3 -9.6 l1.9 0 l3 9.6 l0.1 0 l3.1 -11.8 l1.5 0 l0 0.6 l-3.6 13.4 l-1.9 0 l-3.1 -9.8 l-0.1 0 l-3.1 9.8 l-1.9 0 l-3.6 -13.4 l0 -0.6 l1.5 0 l3.1 11.8 l0.1 0 z M108.69999999999999 16.4 l-1.2 3.6 l-1.5 0 l0 -0.6 l4.9 -13.4 l1.7 0 l4.9 13.4 l0 0.6 l-1.5 0 l-1.2 -3.6 l-6.1 0 z M114.29999999999998 15.1 l-2.5 -7.3 l-0.1 0 l-2.5 7.3 l5.1 0 z M123.89999999999998 7.300000000000001 l0 12.7 l-1.5 0 l0 -12.7 l-4.4 0 l0 -1.3 l10.3 0 l0 0.9 l-0.4 0.4 l-4 0 z M139.39999999999998 18.7 l0 1.3 l-5.8 0 c-2.1 0 -3.5 -1.4 -3.5 -3.3 l0 -7.4 c0 -1.9 1.4 -3.3 3.5 -3.3 l5.8 0 l0 0.9 l-0.4 0.4 l-5.4 0 c-1.1 0 -2 0.9 -2 2 l0 7.4 c0 1.1 0.9 2 2 2 l5.8 0 z M150.49999999999997 6 l1.5 0 l0 14 l-1.5 0 l0 -6.5 l-6.9 0 l0 6.5 l-1.5 0 l0 -14 l1.5 0 l0 6.2 l6.9 0 l0 -6.2 z"></path></g></svg>